<svg width="120" height="71" viewBox="0 0 120 71" fill="none" xmlns="http://www.w3.org/2000/svg">
<path d="M1.68986 42H9.16986V40.215H3.69586V29.335H1.68986V42ZM10.6669 31.545H12.5879V29.335H10.6669V31.545ZM10.6669 42H12.5879V32.803H10.6669V42ZM14.8339 42H16.7549V36.577C16.7549 35.897 16.9476 35.3643 17.3329 34.979C17.7182 34.5823 18.2056 34.384 18.7949 34.384C19.3956 34.384 19.8829 34.5823 20.2569 34.979C20.6422 35.3643 20.8349 35.897 20.8349 36.577V42H22.7389V36.05C22.7389 35.37 22.5859 34.775 22.2799 34.265C21.9852 33.7437 21.5772 33.3357 21.0559 33.041C20.5346 32.7463 19.9396 32.599 19.2709 32.599C18.7269 32.599 18.2396 32.701 17.8089 32.905C17.3782 33.109 17.0269 33.4037 16.7549 33.789V29.131H14.8339V42ZM27.5489 42.204C28.1835 42.204 28.7559 42.0963 29.2659 41.881C29.7759 41.6543 30.2009 41.337 30.5409 40.929V42H32.3769V35.812C32.3769 35.1773 32.2182 34.622 31.9009 34.146C31.5835 33.6587 31.1472 33.279 30.5919 33.007C30.0365 32.735 29.3962 32.599 28.6709 32.599C28.0929 32.599 27.5432 32.701 27.0219 32.905C26.5119 33.0977 26.0642 33.364 25.6789 33.704C25.3049 34.044 25.0272 34.4407 24.8459 34.894L26.4439 35.693C26.6252 35.2623 26.9029 34.9167 27.2769 34.656C27.6622 34.3953 28.1099 34.265 28.6199 34.265C29.1752 34.265 29.6172 34.4123 29.9459 34.707C30.2859 34.9903 30.4559 35.3587 30.4559 35.812V36.169L27.5319 36.645C26.4665 36.8263 25.6789 37.1777 25.1689 37.699C24.6702 38.209 24.4209 38.8323 24.4209 39.569C24.4209 40.3623 24.7099 41.0027 25.2879 41.49C25.8659 41.966 26.6195 42.204 27.5489 42.204ZM26.4269 39.501C26.4269 39.1383 26.5459 38.838 26.7839 38.6C27.0219 38.362 27.3959 38.2033 27.9059 38.124L30.4559 37.682V38.175C30.4559 38.6397 30.3425 39.0647 30.1159 39.45C29.9005 39.8353 29.6002 40.1413 29.2149 40.368C28.8295 40.5833 28.3762 40.691 27.8549 40.691C27.4355 40.691 27.0899 40.5833 26.8179 40.368C26.5572 40.1413 26.4269 39.8523 26.4269 39.501ZM38.435 42.102C38.5936 42.102 38.7693 42.0907 38.962 42.068C39.1546 42.0453 39.3246 42.0227 39.472 42V40.351C39.2566 40.385 39.047 40.402 38.843 40.402C38.2876 40.402 37.891 40.2717 37.653 40.011C37.4263 39.739 37.313 39.3707 37.313 38.906V34.537H39.404V32.803H37.313V30.695H35.392V31.409C35.392 31.8397 35.273 32.1797 35.035 32.429C34.797 32.6783 34.4626 32.803 34.032 32.803H33.777V34.537H35.392V38.991C35.392 39.977 35.6583 40.742 36.191 41.286C36.7236 41.83 37.4716 42.102 38.435 42.102ZM47.7183 42.204C48.3983 42.204 48.9933 42.0907 49.5033 41.864C50.0246 41.626 50.427 41.303 50.7103 40.895C50.9936 40.4757 51.1353 39.994 51.1353 39.45C51.1353 38.8153 50.9313 38.2713 50.5233 37.818C50.1153 37.3533 49.5316 37.0133 48.7723 36.798L47.2763 36.356C46.993 36.2653 46.7266 36.1407 46.4773 35.982C46.228 35.8233 46.1033 35.5853 46.1033 35.268C46.1033 34.9393 46.228 34.6787 46.4773 34.486C46.7266 34.2933 47.061 34.197 47.4803 34.197C47.9676 34.197 48.404 34.3273 48.7893 34.588C49.186 34.8487 49.475 35.2 49.6563 35.642L51.1353 34.945C50.8633 34.2083 50.3986 33.636 49.7413 33.228C49.084 32.8087 48.336 32.599 47.4973 32.599C46.874 32.599 46.313 32.718 45.8143 32.956C45.3156 33.1827 44.9246 33.5 44.6413 33.908C44.358 34.316 44.2163 34.7977 44.2163 35.353C44.2163 35.9763 44.409 36.5147 44.7943 36.968C45.191 37.4213 45.786 37.7613 46.5793 37.988L48.0243 38.396C48.319 38.4753 48.5966 38.6 48.8573 38.77C49.118 38.9287 49.2483 39.1723 49.2483 39.501C49.2483 39.8523 49.1066 40.13 48.8233 40.334C48.54 40.538 48.1716 40.64 47.7183 40.64C47.1856 40.64 46.6983 40.487 46.2563 40.181C45.8256 39.875 45.4856 39.4613 45.2363 38.94L43.7573 39.637C44.0406 40.419 44.5336 41.0423 45.2363 41.507C45.9503 41.9717 46.7776 42.204 47.7183 42.204ZM57.3355 42.204C58.2762 42.204 59.0922 41.9887 59.7835 41.558C60.4862 41.1273 60.9792 40.5833 61.2625 39.926L59.6985 39.161C59.4718 39.5463 59.1602 39.8693 58.7635 40.13C58.3782 40.3793 57.9078 40.504 57.3525 40.504C56.6272 40.504 56.0095 40.2773 55.4995 39.824C54.9895 39.3593 54.7062 38.736 54.6495 37.954H61.4835C61.5175 37.818 61.5402 37.6707 61.5515 37.512C61.5628 37.3533 61.5685 37.2003 61.5685 37.053C61.5685 36.2597 61.3928 35.5287 61.0415 34.86C60.7015 34.18 60.2028 33.636 59.5455 33.228C58.8995 32.8087 58.1118 32.599 57.1825 32.599C56.3212 32.599 55.5448 32.8087 54.8535 33.228C54.1735 33.636 53.6352 34.2027 53.2385 34.928C52.8418 35.642 52.6435 36.458 52.6435 37.376C52.6435 38.2827 52.8418 39.1043 53.2385 39.841C53.6465 40.5663 54.2018 41.1443 54.9045 41.575C55.6072 41.9943 56.4175 42.204 57.3355 42.204ZM57.1825 34.214C57.8285 34.214 58.3725 34.418 58.8145 34.826C59.2565 35.234 59.4945 35.7667 59.5285 36.424H54.6835C54.7968 35.7213 55.0858 35.1773 55.5505 34.792C56.0152 34.4067 56.5592 34.214 57.1825 34.214ZM63.4433 42H65.3643V36.577C65.3643 35.897 65.5456 35.3643 65.9083 34.979C66.271 34.5823 66.7413 34.384 67.3193 34.384C67.8973 34.384 68.3676 34.5823 68.7303 34.979C69.093 35.3643 69.2743 35.897 69.2743 36.577V42H71.1783V36.577C71.1783 35.897 71.3596 35.3643 71.7223 34.979C72.0963 34.5823 72.5723 34.384 73.1503 34.384C73.7283 34.384 74.193 34.5823 74.5443 34.979C74.907 35.3643 75.0883 35.897 75.0883 36.577V42H77.0093V36.05C77.0093 35.37 76.8563 34.775 76.5503 34.265C76.2556 33.7437 75.8476 33.3357 75.3263 33.041C74.8163 32.7463 74.2383 32.599 73.5923 32.599C72.9803 32.599 72.425 32.7293 71.9263 32.99C71.4276 33.2507 71.0253 33.6417 70.7193 34.163C70.4473 33.687 70.0563 33.3073 69.5463 33.024C69.0363 32.7407 68.4696 32.599 67.8463 32.599C67.291 32.599 66.7866 32.7123 66.3333 32.939C65.88 33.1657 65.5286 33.5 65.2793 33.942V32.803H63.4433V42ZM82.3464 42.204C82.9244 42.204 83.44 42.0907 83.8934 41.864C84.3467 41.626 84.7037 41.2917 84.9644 40.861V42H86.7834V32.803H84.8794V38.226C84.8794 38.8947 84.6867 39.4273 84.3014 39.824C83.916 40.2207 83.423 40.419 82.8224 40.419C82.233 40.419 81.7457 40.2263 81.3604 39.841C80.9864 39.4557 80.7994 38.9457 80.7994 38.311V32.803H78.8784V38.481C78.8784 39.2177 79.02 39.8693 79.3034 40.436C79.598 40.9913 80.006 41.4277 80.5274 41.745C81.0487 42.051 81.655 42.204 82.3464 42.204ZM91.7803 42.204C92.415 42.204 92.9873 42.0963 93.4973 41.881C94.0073 41.6543 94.4323 41.337 94.7723 40.929V42H96.6083V35.812C96.6083 35.1773 96.4496 34.622 96.1323 34.146C95.815 33.6587 95.3786 33.279 94.8233 33.007C94.268 32.735 93.6276 32.599 92.9023 32.599C92.3243 32.599 91.7746 32.701 91.2533 32.905C90.7433 33.0977 90.2956 33.364 89.9103 33.704C89.5363 34.044 89.2586 34.4407 89.0773 34.894L90.6753 35.693C90.8566 35.2623 91.1343 34.9167 91.5083 34.656C91.8936 34.3953 92.3413 34.265 92.8513 34.265C93.4066 34.265 93.8486 34.4123 94.1773 34.707C94.5173 34.9903 94.6873 35.3587 94.6873 35.812V36.169L91.7633 36.645C90.698 36.8263 89.9103 37.1777 89.4003 37.699C88.9016 38.209 88.6523 38.8323 88.6523 39.569C88.6523 40.3623 88.9413 41.0027 89.5193 41.49C90.0973 41.966 90.851 42.204 91.7803 42.204ZM90.6583 39.501C90.6583 39.1383 90.7773 38.838 91.0153 38.6C91.2533 38.362 91.6273 38.2033 92.1373 38.124L94.6873 37.682V38.175C94.6873 38.6397 94.574 39.0647 94.3473 39.45C94.132 39.8353 93.8316 40.1413 93.4463 40.368C93.061 40.5833 92.6076 40.691 92.0863 40.691C91.667 40.691 91.3213 40.5833 91.0493 40.368C90.7886 40.1413 90.6583 39.8523 90.6583 39.501Z" fill="#4475F2"/>
<path d="M114.732 30.9043L119 36.2225L114.732 41.5407" stroke="#4737FF" stroke-width="2" stroke-linecap="round" stroke-linejoin="round"/>
</svg>
